<?xml version="1.0" encoding="UTF-8"?>
<svg version="1.1" xmlns="http://www.w3.org/2000/svg" width="1889" height="1673">
<path d="M0 0 C623.37 0 1246.74 0 1889 0 C1889 552.09 1889 1104.18 1889 1673 C1265.63 1673 642.26 1673 0 1673 C0 1120.91 0 568.82 0 0 Z " fill="#FEFEFE" transform="translate(0,0)"/>
<path d="M0 0 C2.28842751 -0.0007926 4.57685488 -0.00289514 6.86528015 -0.00619507 C13.03023731 -0.0112905 19.19502504 0.0021277 25.35995507 0.01933193 C31.83519568 0.03446561 38.31043498 0.03319617 44.78569031 0.03399658 C55.65012515 0.03767824 66.51449534 0.05249908 77.37890625 0.07519531 C88.5302788 0.09847368 99.68161116 0.11262482 110.83300781 0.11621094 C111.52071364 0.1164337 112.20841947 0.11665647 112.91696487 0.11688599 C114.30262239 0.11732863 115.68827991 0.11777065 117.07393743 0.11821206 C118.09952197 0.11854141 118.09952197 0.11854141 119.14582539 0.11887741 C120.16901729 0.11920139 120.16901729 0.11920139 121.21287974 0.11953191 C132.53052173 0.1234655 143.84815568 0.13615664 155.16579032 0.14922428 C159.00887066 0.15331028 162.85195063 0.15624238 166.69503212 0.15901947 C172.74196553 0.16393451 178.78886851 0.17417475 184.83578682 0.18845749 C187.04802424 0.1929558 189.26026573 0.19581326 191.47250748 0.19686508 C229.39898911 0.21893353 229.39898911 0.21893353 240.4440918 10.83300781 C244.30717198 15.23827469 245.29089157 19.2950322 245.0612793 24.99707031 C244.13009294 32.80868918 240.86640821 38.48101001 235.7800293 44.35644531 C235.31209961 44.91847656 234.84416992 45.48050781 234.36206055 46.05957031 C229.03902157 51.91628158 222.20473933 55.86052605 215.62524414 60.14404297 C187.04731605 78.92123149 180.80106005 106.49572551 171.92550445 137.75581384 C170.80042081 141.71287715 169.66765124 145.66773945 168.53572083 149.62284851 C166.39986041 157.09003047 164.27054701 164.55906181 162.14377052 172.02883548 C159.48438898 181.3681214 156.81693589 190.70509847 154.14916992 200.04199219 C153.21465637 203.3127451 152.28018299 206.58350949 151.34577942 209.85429382 C151.1196197 210.64593042 150.89345998 211.43756702 150.66044694 212.2531926 C149.10185938 217.70968899 147.54571566 223.16687868 145.99052429 228.62434387 C145.37567249 230.78104521 144.76076599 232.93773094 144.14583588 235.09440994 C143.76060665 236.44602973 143.37561532 237.79771735 142.99087715 239.14947701 C142.46664627 240.99132305 141.94156008 242.83292558 141.41642761 244.67451477 C140.97597752 246.22099182 140.97597752 246.22099182 140.52662945 247.79871082 C139.98249636 249.66282507 139.39411421 251.51419059 138.7800293 253.35644531 C191.5800293 253.35644531 244.3800293 253.35644531 298.7800293 253.35644531 C299.1100293 251.04644531 299.4400293 248.73644531 299.7800293 246.35644531 C300.20655643 244.49406189 300.66710101 242.63911156 301.1628418 240.79394531 C301.57759766 239.24610352 301.57759766 239.24610352 302.00073242 237.66699219 C302.29915039 236.57451172 302.59756836 235.48203125 302.9050293 234.35644531 C303.37199219 232.63264648 303.37199219 232.63264648 303.84838867 230.87402344 C306.12631645 222.54606616 308.5928677 214.28855866 311.15356445 206.04394531 C313.3684235 198.85768399 315.35752319 191.62592153 317.2800293 184.35644531 C319.4542914 176.13501673 321.75712975 167.97773215 324.2800293 159.85644531 C327.12825799 150.68155686 329.6828886 141.45052681 332.1418457 132.16430664 C334.47110164 123.40164844 336.97176697 114.69678011 339.55932617 106.00708008 C339.83583008 105.07436279 340.11233398 104.14164551 340.3972168 103.18066406 C340.64068848 102.36686279 340.88416016 101.55306152 341.13500977 100.71459961 C344.61079291 88.00733642 344.4663804 74.32171014 338.5612793 62.46972656 C335.79918594 57.64212041 332.89669863 52.96243216 329.7800293 48.35644531 C328.81396853 46.8614104 327.85481626 45.36187133 326.9050293 43.85644531 C326.51573242 43.24800781 326.12643555 42.63957031 325.7253418 42.01269531 C322.67247322 36.66386772 323.27682765 30.29836066 323.7800293 24.35644531 C326.23645886 15.62530189 331.15841472 10.15700782 338.94018555 5.71191406 C350.09296816 0.38864643 362.88013645 0.20407664 375.01951599 0.21600342 C375.98824978 0.2130323 376.95698358 0.21006117 377.95507294 0.20700002 C381.16813708 0.19839891 384.38116359 0.19681215 387.59423828 0.1953125 C389.91133706 0.19067843 392.22843508 0.18565298 394.54553223 0.18026733 C400.81614746 0.16720271 407.08675202 0.16071064 413.35737872 0.15625668 C417.27943803 0.15331783 421.20149447 0.14921163 425.12355232 0.1447525 C436.0039061 0.13265772 446.8842567 0.12226964 457.76461697 0.11887741 C458.80624515 0.11854806 458.80624515 0.11854806 459.86891634 0.11821206 C460.5648844 0.11799378 461.26085246 0.1177755 461.97791046 0.11755061 C463.38794291 0.11710716 464.79797536 0.1166606 466.20800781 0.11621094 C467.257119 0.11587879 467.257119 0.11587879 468.32742435 0.11553994 C479.66416859 0.1115905 491.00084861 0.09412558 502.33756804 0.07085142 C514.0042259 0.04709485 525.67084839 0.03493135 537.33753067 0.03350949 C543.87707585 0.03246316 550.41653016 0.02659094 556.95605278 0.00868988 C563.10635746 -0.00782054 569.25650322 -0.0099318 575.4068222 -0.00117111 C577.65776305 -0.00040248 579.90871256 -0.0047204 582.15963173 -0.01462936 C614.0747242 -0.14683794 614.0747242 -0.14683794 624.6315918 10.16503906 C629.3763806 15.57319881 630.13978471 18.95894197 630.0534668 26.19238281 C629.23773184 35.6316016 623.0913107 43.69801509 616.0456543 49.67675781 C611.25884795 53.33506836 606.3341652 56.67959269 601.2175293 59.85644531 C589.44340372 67.21315004 579.9964894 75.54126091 573.6550293 87.91894531 C573.34218994 88.52488525 573.02935059 89.1308252 572.70703125 89.75512695 C566.14715099 103.2123898 562.68940982 118.3396877 558.6315918 132.68847656 C558.05040795 134.73474532 557.46897155 136.78094237 556.88729858 138.82707214 C555.67331451 143.10018086 554.46160974 147.37392672 553.25170898 151.64819336 C551.7234259 157.0469481 550.19061636 162.44440405 548.6562767 167.8414402 C540.58375981 196.14727276 540.58375981 196.14727276 532.88247681 224.55561829 C531.17124946 231.04000739 529.26860943 237.45192472 527.2800293 243.85644531 C524.76438581 251.98003815 522.45436839 260.13472563 520.2800293 268.35644531 C517.85373488 277.53087108 515.22037078 286.61097116 512.4050293 295.67285156 C510.19118301 302.85796877 508.20231365 310.08834395 506.2800293 317.35644531 C503.86197126 326.49365513 501.25710534 335.54632178 498.45655346 344.5732193 C496.3821971 351.29065347 494.44013107 358.03622857 492.56445312 364.81152344 C489.03670807 377.47904809 485.42925192 390.1228973 481.80438805 402.76292419 C480.69753912 406.62328669 479.59192675 410.48400128 478.48677063 414.34484863 C475.35072811 425.29996069 472.21383782 436.25482832 469.07275391 447.20849609 C467.32340267 453.30892716 465.57595671 459.40990057 463.83063442 465.51148558 C462.91325572 468.71830278 461.99461764 471.92474606 461.07419395 475.13069153 C460.05271416 478.68897187 459.03453483 482.24818139 458.01708984 485.80761719 C457.56748398 487.36927361 457.56748398 487.36927361 457.10879517 488.96247864 C453.22807761 502.57320978 448.73510999 519.44195322 455.38549805 532.90722656 C456.07579102 534.11958984 456.07579102 534.11958984 456.7800293 535.35644531 C457.37428711 536.46375 457.96854492 537.57105469 458.58081055 538.71191406 C462.14867812 545.24198451 466.05398704 551.44179947 470.43237305 557.46582031 C474.18785878 562.7343858 473.3656357 569.13848965 472.7800293 575.35644531 C470.128317 583.72969452 464.81152726 589.70946993 457.3190918 594.15722656 C440.20304341 602.24126788 419.7399847 600.51029345 401.2878418 600.53344727 C399.06516416 600.53972694 396.84248754 600.54637502 394.61981201 600.55335999 C387.38155828 600.57420703 380.14330477 600.58473742 372.9050293 600.59472656 C370.39919016 600.59878002 367.89335113 600.60289711 365.38751221 600.60707664 C354.96247688 600.62390973 344.53744302 600.63854864 334.11239624 600.64582539 C331.42152912 600.64773456 328.73066201 600.64965502 326.03979492 600.65161133 C325.37117975 600.65209507 324.70256457 600.65257881 324.01368833 600.65307721 C313.17463045 600.66138386 302.33568266 600.68674746 291.49667287 600.71919201 C280.32253089 600.75236304 269.14842865 600.76995043 257.97423363 600.77346963 C251.71852714 600.77581148 245.46299588 600.78466105 239.20733643 600.8099308 C233.32366841 600.83332025 227.4402898 600.83740115 221.55658722 600.82716942 C219.40890791 600.82667676 217.26121377 600.83291657 215.1135788 600.84672546 C181.80098148 601.04879112 181.80098148 601.04879112 170.7800293 590.35644531 C169.07531468 588.06274222 167.98971851 585.9774386 166.7800293 583.35644531 C166.4500293 582.69644531 166.1200293 582.03644531 165.7800293 581.35644531 C164.77871298 571.75365772 166.79215371 564.76964976 172.8425293 557.29394531 C178.66312751 551.05406672 185.84999204 546.54511943 193.03955078 542.04907227 C199.91963683 537.73655794 206.00043052 533.11459846 211.7800293 527.35644531 C212.34077148 526.81890625 212.90151367 526.28136719 213.47924805 525.72753906 C224.86873114 513.79997016 228.38116031 495.65504345 232.7800293 480.35644531 C233.05202148 479.4125293 233.32401367 478.46861328 233.60424805 477.49609375 C234.59830879 474.03580362 235.58749571 470.57425412 236.5637207 467.10888672 C238.35460698 460.7653091 240.27047621 454.46611783 242.2175293 448.16894531 C245.08188237 438.87497502 247.65964672 429.52285368 250.15478516 420.1237793 C252.89947901 409.81643946 255.87432681 399.58390419 258.89624023 389.35498047 C260.10929681 385.23930066 261.30878502 381.11971412 262.50805664 377 C263.66094778 373.03987857 264.8172477 369.08075565 265.97338867 365.12158203 C266.74921092 362.46208966 267.5226022 359.80190022 268.2956543 357.14160156 C268.74868687 355.58818919 269.20180593 354.03480203 269.6550293 352.48144531 C269.85821777 351.77963135 270.06140625 351.07781738 270.27075195 350.35473633 C271.66629389 345.58391613 271.66629389 345.58391613 272.7800293 343.35644531 C220.3100293 343.68644531 167.8400293 344.01644531 113.7800293 344.35644531 C110.3150293 356.73144531 110.3150293 356.73144531 106.7800293 369.35644531 C103.7800293 378.79394531 103.7800293 378.79394531 102.3034668 383.37988281 C100.48760385 389.17694852 98.95410822 395.04607798 97.4050293 400.91894531 C95.06216571 409.8003507 92.53035847 418.592707 89.7800293 427.35644531 C86.72145156 437.10717644 83.96686442 446.90546843 81.36303711 456.78662109 C79.40906087 464.15376061 77.28194615 471.45010844 75.0300293 478.73144531 C71.18268205 491.18406446 67.60520845 503.14566077 67.5925293 516.29394531 C67.5802832 516.95845703 67.56803711 517.62296875 67.55541992 518.30761719 C67.53118804 526.6353066 69.78523546 533.09781957 73.9675293 540.23144531 C74.36464111 540.92399414 74.76175293 541.61654297 75.17089844 542.33007812 C77.99101339 547.18264218 81.03099124 551.8258312 84.36987305 556.34082031 C88.46006706 562.18719181 88.4553807 567.34318071 87.7800293 574.35644531 C86.04089738 582.03944579 82.07387362 587.66328458 75.7800293 592.35644531 C72.54944525 594.13489815 69.30572588 595.29616284 65.7800293 596.35644531 C64.88670898 596.64261719 63.99338867 596.92878906 63.07299805 597.22363281 C47.54608066 601.68416995 30.37716674 600.51312412 14.35791016 600.53344727 C12.1547892 600.53972835 9.95166926 600.54637654 7.74855042 600.55335999 C0.58066517 600.574188 -6.58721981 600.58473466 -13.75512695 600.59472656 C-16.23775175 600.59878055 -18.72037644 600.60289765 -21.20300102 600.60707664 C-32.86093186 600.6260728 -44.51885654 600.64032154 -56.17679983 600.64868861 C-57.51158401 600.64965707 -58.84636818 600.65063132 -60.18115234 600.65161133 C-61.17425501 600.65233694 -61.17425501 600.65233694 -62.18742036 600.65307721 C-72.92295072 600.66138584 -83.65837 600.6867544 -94.39385182 600.71919201 C-105.46407208 600.75236417 -116.53423305 600.76995045 -127.60450262 600.77346963 C-133.80095012 600.77581112 -139.99722069 600.78465617 -146.19362068 600.8099308 C-152.02066924 600.83332193 -157.84742559 600.8374005 -163.67450905 600.82716942 C-165.80122606 600.82667683 -167.92795806 600.83291471 -170.05463028 600.84672546 C-202.71135123 601.04679139 -202.71135123 601.04679139 -214.2199707 590.35644531 C-218.76175373 585.08746669 -219.58254869 580.03236456 -219.4934082 573.26660156 C-218.7259499 565.0986525 -214.07506266 558.8313365 -208.2199707 553.35644531 C-202.96685879 549.10820551 -197.38425363 545.42859704 -191.6574707 541.85644531 C-168.59507685 527.33567881 -159.53190254 507.7761187 -152.9074707 482.10644531 C-150.67684418 473.63296144 -148.32400542 465.22273958 -145.7199707 456.85644531 C-143.1964078 448.73537889 -140.89422441 440.57784213 -138.7199707 432.35644531 C-136.54570797 424.13501434 -134.24282699 415.97774713 -131.7199707 407.85644531 C-128.88377505 398.71873858 -126.31412203 389.52921784 -123.88012695 380.27636719 C-122.27111255 374.17883985 -120.58907328 368.10521964 -118.84887695 362.04394531 C-115.81619137 351.45356192 -112.79930244 340.85871549 -109.78466797 330.26318359 C-109.00532736 327.52428634 -108.2259677 324.7853945 -107.44660747 322.04650283 C-106.9036107 320.13825684 -106.36062149 318.2300087 -105.81763947 316.32175851 C-102.30609715 303.98114677 -98.79255703 291.64110374 -95.27903283 279.30105615 C-91.87236113 267.33628803 -88.46634864 255.37133331 -85.0625 243.40576172 C-82.34101017 233.83890435 -79.61802137 224.27247504 -76.89331478 214.70653331 C-75.45849024 209.66893055 -74.02436929 204.63113013 -72.59207344 199.59280777 C-61.74885731 161.45320908 -61.74885731 161.45320908 -56.52957153 144.63096619 C-54.70241524 138.72825123 -53.09538954 132.77178215 -51.5324707 126.79394531 C-50.95264673 124.60490326 -50.37192592 122.41609856 -49.7902832 120.22753906 C-49.52119141 119.2141748 -49.25209961 118.20081055 -48.97485352 117.15673828 C-48.00029562 113.54154453 -46.96079549 109.94945321 -45.9074707 106.35644531 C-40.40093641 87.0717587 -41.33881115 72.55403653 -51.0871582 54.97753906 C-52.90358648 51.80994598 -54.92832273 48.8606912 -57.0949707 45.91894531 C-61.49148821 39.86997817 -62.99963256 33.89317656 -62.2199707 26.35644531 C-59.56783613 17.04383642 -55.3979896 10.84533958 -46.9074707 6.10644531 C-32.07158874 -0.55277329 -15.92422599 -0.07169959 0 0 Z " fill="#000000" transform="translate(765.219970703125,502.6435546875)"/>
<path d="M0 0 C1.20936218 -0.00622879 2.41872437 -0.01245758 3.66473389 -0.01887512 C5.62554901 -0.0050605 5.62554901 -0.0050605 7.62597656 0.0090332 C8.9944051 0.00955276 10.3628344 0.00903137 11.73126221 0.00752258 C14.60627331 0.00761232 17.48100416 0.0180285 20.35595703 0.03613281 C23.99316359 0.05856297 27.62995182 0.05941127 31.2672081 0.05261517 C34.10045914 0.04922369 36.93361966 0.05600491 39.76685333 0.0657444 C41.74493151 0.07133933 43.72302525 0.07017663 45.70111084 0.06877136 C62.73650609 0.19896953 80.03776867 1.60837499 94.01660156 12.37231445 C103.21795288 21.86824764 105.37587786 31.74813861 105.22753906 44.7277832 C103.90856769 67.51667745 94.96376351 90.81650766 78.01660156 106.37231445 C74.49627706 109.02572911 70.90017024 111.29241156 67.01660156 113.37231445 C66.47224457 113.67786255 65.92788757 113.98341064 65.36703491 114.29821777 C45.51353157 124.94605952 20.54407223 123.10123174 -1.30688477 122.89050293 C-4.67004789 122.8659266 -8.03289647 122.87181646 -11.39612293 122.87776947 C-14.65352044 122.88083236 -17.91071732 122.86875443 -21.16806602 122.85163879 C-22.71380041 122.84463833 -24.25955739 122.84148065 -25.80530739 122.84233093 C-27.94558136 122.84053457 -30.08476786 122.81919132 -32.22485352 122.79223633 C-33.43740311 122.78381714 -34.6499527 122.77539795 -35.89924622 122.76672363 C-39.19949741 122.34467917 -40.58338655 121.61435904 -42.98339844 119.37231445 C-43.04589844 116.80981445 -43.04589844 116.80981445 -41.98339844 113.37231445 C-39.85440231 111.60102415 -37.66630111 110.11948767 -35.30761719 108.66918945 C-29.19208715 102.62560683 -27.75326304 92.38204682 -25.67089844 84.30981445 C-25.06123312 81.99965137 -24.45052938 79.68976212 -23.83886719 77.38012695 C-23.53126465 76.21384766 -23.22366211 75.04756836 -22.90673828 73.84594727 C-21.47183528 68.44779817 -19.98564831 63.06456167 -18.48339844 57.68481445 C-18.05824951 56.15522095 -18.05824951 56.15522095 -17.62451172 54.59472656 C-16.15883868 49.37207535 -14.62631953 44.1800655 -12.98730469 39.0090332 C-12.66246094 37.9780249 -12.33761719 36.9470166 -12.00292969 35.88476562 C-11.38583503 33.94233424 -10.75773165 32.00334932 -10.11621094 30.06884766 C-8.34378883 24.49582571 -7.165862 19.24078428 -7.98339844 13.37231445 C-8.94358013 11.68239467 -9.93695778 10.01022157 -10.98339844 8.37231445 C-10.90887717 5.24242125 -10.56075425 3.92929097 -8.29876709 1.74714661 C-5.35060547 -0.00342879 -3.41949844 -0.00202658 0 0 Z " fill="#020202" transform="translate(729.9833984375,1167.627685546875)"/>
<path d="M0 0 C1.34463318 -0.01007584 1.34463318 -0.01007584 2.71643066 -0.02035522 C5.68039492 -0.0393553 8.64413293 -0.04326059 11.6081543 -0.04541016 C13.67075188 -0.05183722 15.73334855 -0.05856551 17.79594421 -0.06558228 C22.120983 -0.07756045 26.44594189 -0.08126259 30.77099609 -0.08007812 C36.30591571 -0.07987503 41.84032133 -0.10716513 47.37511921 -0.14162254 C51.63628988 -0.16389077 55.8973369 -0.16791567 60.1585598 -0.16685867 C62.19865882 -0.1692152 64.23876123 -0.17804165 66.27880287 -0.19352341 C69.13675231 -0.21317934 71.99359418 -0.20734652 74.8515625 -0.1953125 C75.68973007 -0.20655151 76.52789764 -0.21779053 77.39146423 -0.22937012 C83.09729747 -0.16849952 86.41155482 1.03299855 91.11987305 4.29052734 C93.23143253 6.95292843 93.53859766 9.66403144 93.4440918 13.04443359 C92.68755291 18.28551622 90.78518253 23.28248755 89.11987305 28.29052734 C88.85819336 29.18126953 88.59651367 30.07201172 88.3269043 30.98974609 C85.89451496 39.12010824 85.89451496 39.12010824 82.11987305 41.29052734 C77.45358656 41.9662853 72.98606946 42.59141608 68.97924805 39.79833984 C66.41359964 36.3379485 65.20721493 32.73213839 63.86987305 28.66552734 C63.46768555 27.50150391 63.46768555 27.50150391 63.05737305 26.31396484 C61.11987305 20.62008729 61.11987305 20.62008729 61.11987305 18.29052734 C52.86987305 18.29052734 44.61987305 18.29052734 36.11987305 18.29052734 C35.54237305 20.97177734 34.96487305 23.65302734 34.36987305 26.41552734 C32.60477739 34.47947607 30.50887725 42.38648151 28.11987305 50.29052734 C37.2534091 50.44025744 41.5230266 46.18443114 48.11987305 40.29052734 C51.84045665 37.81013827 53.71783875 37.82715531 58.11987305 38.29052734 C60.61987305 39.72802734 60.61987305 39.72802734 62.11987305 42.29052734 C62.3048184 53.20230305 57.69204483 71.16113838 50.24487305 79.35302734 C47.23879795 80.67923695 45.37356366 80.82174214 42.11987305 80.29052734 C37.87901528 76.95842481 35.5299811 73.02148018 33.11987305 68.29052734 C33.11987305 67.63052734 33.11987305 66.97052734 33.11987305 66.29052734 C29.48987305 66.29052734 25.85987305 66.29052734 22.11987305 66.29052734 C22.03737305 67.50740234 21.95487305 68.72427734 21.86987305 69.97802734 C21.29670937 75.14457321 19.82947123 79.86028517 18.23706055 84.79443359 C16.69245162 89.6280874 15.32914791 94.50863639 13.9519043 99.39208984 C13.3838433 101.37096898 12.77092266 103.33737852 12.11987305 105.29052734 C14.76789652 105.22972313 17.41085754 105.14240158 20.05737305 105.04052734 C20.7927832 105.02634766 21.52819336 105.01216797 22.28588867 104.99755859 C30.27483985 104.6486961 36.44252318 102.32704264 42.0690918 96.54052734 C43.3299351 95.13697177 44.57599994 93.72000779 45.80737305 92.29052734 C55.57473468 81.16238777 55.57473468 81.16238777 61.2800293 79.75927734 C64.64720303 79.81459026 67.08295149 80.27283576 70.11987305 81.72802734 C73.03848628 85.46750055 72.55961351 88.6844248 72.11987305 93.29052734 C71.42645121 96.58193844 70.43900239 99.72869949 69.36987305 102.91552734 C69.1172168 103.72248047 68.86456055 104.52943359 68.60424805 105.36083984 C66.96223891 110.41822798 65.29696033 115.00037887 62.11987305 119.29052734 C56.09510242 122.13203475 51.06048918 122.72515835 44.46264648 122.67871094 C43.53156067 122.6839679 42.60047485 122.68922485 41.64117432 122.69464111 C38.58702447 122.70776377 35.53340248 122.69913335 32.47924805 122.68896484 C30.34791972 122.69098711 28.21659208 122.69389983 26.08526611 122.69766235 C21.63026303 122.70207463 17.17544096 122.69568733 12.72045898 122.68164062 C7.00830646 122.66450784 1.29657557 122.67442286 -4.41556168 122.69235802 C-8.81129139 122.70318992 -13.2069208 122.69975293 -17.6026535 122.69197464 C-19.70940959 122.68997315 -21.81617477 122.69243009 -23.92292023 122.6994133 C-26.86235268 122.70702247 -29.80109737 122.69543272 -32.74047852 122.67871094 C-34.04656067 122.68781998 -34.04656067 122.68781998 -35.37902832 122.69711304 C-41.29965639 122.63463876 -41.29965639 122.63463876 -44.45135498 120.76626587 C-45.88012695 119.29052734 -45.88012695 119.29052734 -45.94262695 116.72802734 C-44.52356338 112.13693932 -42.03953695 110.85014394 -38.10668945 108.29443359 C-32.59280297 103.33193575 -31.47656907 94.49143498 -29.6887207 87.58349609 C-27.2017703 78.15842131 -24.62038732 68.76862417 -21.9152832 59.40380859 C-21.25447378 57.10498108 -20.59366649 54.80615296 -19.93286133 52.50732422 C-18.92767028 49.01507276 -17.91956332 45.52376068 -16.90429688 42.03442383 C-15.89956375 38.57657605 -14.90647133 35.1155595 -13.9152832 31.65380859 C-13.60913589 30.6121907 -13.30298859 29.57057281 -12.98756409 28.49739075 C-11.50344344 23.27817171 -10.35093139 18.72321215 -10.88012695 13.29052734 C-11.39575195 12.44490234 -11.91137695 11.59927734 -12.44262695 10.72802734 C-13.88012695 8.29052734 -13.88012695 8.29052734 -13.81762695 5.10302734 C-12.88012695 2.29052734 -12.88012695 2.29052734 -11.37654114 1.13290405 C-7.63061874 -0.13110005 -3.91008091 -0.00419784 0 0 Z " fill="#020202" transform="translate(870.880126953125,1167.70947265625)"/>
<path d="M0 0 C3.74982739 2.72487457 6.27724118 5.8356298 7.7578125 10.27734375 C8.46130965 17.41610992 8.11822675 23.39212206 3.7578125 29.27734375 C0.22466683 32.98053387 -3.70123215 35.98575871 -8.86328125 36.578125 C-18.16061743 36.61681017 -18.16061743 36.61681017 -22.2421875 33.27734375 C-23.0053125 32.72046875 -23.7684375 32.16359375 -24.5546875 31.58984375 C-25.1115625 31.15671875 -25.6684375 30.72359375 -26.2421875 30.27734375 C-26.63458618 31.58626587 -26.63458618 31.58626587 -27.03491211 32.92163086 C-28.23853571 36.26719333 -29.68788185 38.95230007 -31.55859375 41.96875 C-32.23196777 43.06396973 -32.9053418 44.15918945 -33.59912109 45.28759766 C-33.95802429 45.86552063 -34.31692749 46.4434436 -34.68670654 47.03887939 C-36.61831444 50.15052181 -38.52934004 53.27476206 -40.44140625 56.3984375 C-40.83785339 57.04526489 -41.23430054 57.69209229 -41.64276123 58.35852051 C-45.52549862 64.70880479 -49.29288253 71.12429421 -53.04031372 77.55508423 C-56.0985352 82.80112964 -59.1724154 88.03805396 -62.2421875 93.27734375 C-63.08233398 94.7149707 -63.08233398 94.7149707 -63.93945312 96.18164062 C-65.40415402 98.67874588 -66.88270794 101.16696109 -68.3671875 103.65234375 C-68.7679248 104.34086426 -69.16866211 105.02938477 -69.58154297 105.73876953 C-72.92709027 111.28485651 -77.06575859 116.45089712 -82.7421875 119.71484375 C-87.46028659 120.77641604 -90.91893227 120.82221355 -95.4296875 118.96484375 C-102.00792565 112.67897174 -103.11834685 102.05704448 -104.64453125 93.41015625 C-104.84743271 92.30438736 -105.05033417 91.19861847 -105.25938416 90.05934143 C-105.90848643 86.5085788 -106.54404855 82.9555385 -107.1796875 79.40234375 C-107.62497059 76.95923744 -108.07109976 74.51628519 -108.51806641 72.07348633 C-110.36789642 61.92500023 -112.18798909 51.77264212 -113.86328125 41.59375 C-113.97633102 40.91225891 -114.0893808 40.23076782 -114.20585632 39.52862549 C-114.69559577 36.56788701 -115.17148345 33.60632729 -115.62084961 30.63916016 C-116.851148 22.98929879 -118.66652358 15.92690628 -123.9921875 10.08984375 C-126.2421875 7.27734375 -126.2421875 7.27734375 -126.7421875 4.08984375 C-126.17745461 0.91322124 -125.77062165 0.17832299 -123.2421875 -1.72265625 C-120.86502075 -2.1103363 -120.86502075 -2.1103363 -118.02392578 -2.12670898 C-116.95917023 -2.13939316 -115.89441467 -2.15207733 -114.7973938 -2.16514587 C-113.07237137 -2.16074242 -113.07237137 -2.16074242 -111.3125 -2.15625 C-110.13001678 -2.16149185 -108.94753357 -2.1667337 -107.72921753 -2.1721344 C-105.22589911 -2.1785628 -102.72255051 -2.17720711 -100.21923828 -2.16870117 C-96.38909999 -2.16020486 -92.56045908 -2.18892204 -88.73046875 -2.22070312 C-86.29947961 -2.22231552 -83.86848784 -2.22173688 -81.4375 -2.21875 C-79.71855026 -2.23560097 -79.71855026 -2.23560097 -77.96487427 -2.25279236 C-70.03085846 -2.18330174 -70.03085846 -2.18330174 -66.01904297 0.15991211 C-64.2421875 2.27734375 -64.2421875 2.27734375 -63.6171875 4.65234375 C-64.2421875 7.27734375 -64.2421875 7.27734375 -66.7421875 9.96484375 C-69.81674711 13.37873964 -69.56096851 16.02905307 -69.44628906 20.47045898 C-69.10219068 25.20263495 -68.26200203 29.80990432 -67.3671875 34.46484375 C-65.69271566 43.37675501 -64.38074498 52.28304611 -63.2421875 61.27734375 C-62.81510498 60.49834717 -62.38802246 59.71935059 -61.94799805 58.91674805 C-30.48907818 1.58475599 -30.48907818 1.58475599 -18.26953125 -2.359375 C-11.71324447 -3.53420095 -5.85747597 -3.3318841 0 0 Z " fill="#020202" transform="translate(1101.2421875,1169.72265625)"/>
<path d="M0 0 C10.61996034 -0.61863847 10.61996034 -0.61863847 15.625 1.625 C19.1425005 5.1425005 19.88726249 8.53772818 20.265625 13.4453125 C20.17474691 34.84710258 13.96340429 59.86068246 2 78 C1.62359375 78.57105469 1.2471875 79.14210938 0.859375 79.73046875 C-2.27914182 83.96746646 -5.96944228 86.57672026 -11 88 C-15.02606407 88.30627727 -18.97203389 88.24167797 -23 88 C-22.45146565 81.93631054 -21.47214708 76.39252085 -19.75 70.5625 C-19.296685 68.98052318 -18.84356553 67.39849032 -18.390625 65.81640625 C-18.15923828 65.01734863 -17.92785156 64.21829102 -17.68945312 63.39501953 C-16.59825949 59.6044354 -15.55049825 55.80202122 -14.5 52 C-14.08356022 50.49993699 -13.66689308 48.99993709 -13.25 47.5 C-13.04375 46.7575 -12.8375 46.015 -12.625 45.25 C-12 43 -11.375 40.75 -10.75 38.5 C-10.5435083 37.75661377 -10.3370166 37.01322754 -10.12426758 36.24731445 C-9.71007594 34.75625694 -9.295851 33.26520867 -8.8815918 31.77416992 C-7.80177571 27.88742741 -6.72264141 24.00049733 -5.64453125 20.11328125 C-5.42152344 19.30955078 -5.19851563 18.50582031 -4.96875 17.67773438 C-4.54535627 16.1517528 -4.12216424 14.62571524 -3.69921875 13.09960938 C-2.48580945 8.7272912 -1.2518512 4.36147244 0 0 Z " fill="#FBFBFB" transform="translate(769,1185)"/>
</svg>
